<svg xmlns="http://www.w3.org/2000/svg" xmlns:svg="http://www.w3.org/2000/svg" xmlns:xlink="http://www.w3.org/1999/xlink" id="svg2" width="210mm" height="297mm" version="1.1"><defs id="defs4"><linearGradient id="linearGradient3750"><stop style="stop-color:#17273b;stop-opacity:1" id="stop3752" offset="0"/><stop id="stop4356" offset=".417" style="stop-color:#008cd4;stop-opacity:.78039217"/><stop style="stop-color:#6eb5de;stop-opacity:.69803923" id="stop4358" offset=".878"/><stop style="stop-color:#88bfe5;stop-opacity:.61960787" id="stop3754" offset="1"/></linearGradient><linearGradient id="linearGradient3284"><stop style="stop-color:#fff;stop-opacity:1" id="stop3286" offset="0"/><stop style="stop-color:#fff;stop-opacity:.7518248" id="stop3288" offset="1"/></linearGradient><linearGradient id="linearGradient3278"><stop id="stop3280" offset="0" style="stop-color:#33bff7;stop-opacity:.38039216"/><stop id="stop3282" offset="1" style="stop-color:#2d446b;stop-opacity:1"/></linearGradient><linearGradient id="linearGradient3272"><stop id="stop3274" offset="0" style="stop-color:#2596f6;stop-opacity:.38039216"/><stop id="stop3276" offset="1" style="stop-color:#2d446b;stop-opacity:1"/></linearGradient><linearGradient id="linearGradient3266"><stop id="stop3268" offset="0" style="stop-color:#189fff;stop-opacity:.38039216"/><stop id="stop3270" offset="1" style="stop-color:#010b2b;stop-opacity:1"/></linearGradient><linearGradient id="linearGradient3244"><stop id="stop3246" offset="0" style="stop-color:#419bff;stop-opacity:1"/><stop id="stop3248" offset="1" style="stop-color:#002359;stop-opacity:1"/></linearGradient><linearGradient id="linearGradient3159"><stop style="stop-color:#33bff7;stop-opacity:.38039216" id="stop3161" offset="0"/><stop style="stop-color:#2d446b;stop-opacity:1" id="stop3163" offset="1"/></linearGradient><radialGradient id="radialGradient3256" cx="344.735" cy="77.264" r="196.157" fx="344.735" fy="77.264" gradientTransform="matrix(-1.39796,-5.3360318e-2,8.3551106e-2,-2.1889079,820.20461,272.08319)" gradientUnits="userSpaceOnUse" xlink:href="#linearGradient3244"/><radialGradient id="radialGradient3264" cx="140.336" cy="300.275" r="206.157" fx="140.336" fy="300.275" gradientTransform="matrix(0.6771172,-0.6830119,1.1802789,1.1700925,-161.83993,77.639162)" gradientUnits="userSpaceOnUse" xlink:href="#linearGradient3159"/><radialGradient id="radialGradient3290" cx="267.504" cy="337.127" r="77.845" fx="267.504" fy="337.127" gradientTransform="matrix(1,0,0,0.7430849,0,86.613009)" gradientUnits="userSpaceOnUse" xlink:href="#linearGradient3284"/><linearGradient id="linearGradient3211"><stop id="stop3213" offset="0" style="stop-color:#00a0ff;stop-opacity:1"/><stop id="stop3215" offset="1" style="stop-color:#0025ff;stop-opacity:1"/></linearGradient><filter id="filter3406"><feGaussianBlur id="feGaussianBlur3408" stdDeviation="13.396"/></filter><radialGradient id="radialGradient3416" cx="119.964" cy="229.29" r="203.195" fx="119.964" fy="229.29" gradientTransform="matrix(0.7210805,2.1168143,-1.4722239,0.5015047,347.53034,-320.94088)" gradientUnits="userSpaceOnUse" xlink:href="#linearGradient3284"/><radialGradient id="radialGradient3423" cx="351.155" cy="372.063" r="163.571" fx="351.155" fy="372.063" gradientTransform="matrix(1.1454302,-1.1687051,2.0295327,1.9193266,-889.0626,57.219022)" gradientUnits="userSpaceOnUse" xlink:href="#linearGradient3266"/><radialGradient id="radialGradient3734" cx="119.964" cy="229.29" r="203.195" fx="119.964" fy="229.29" gradientTransform="matrix(0.7210805,2.1168143,-1.4722239,0.5015047,347.53034,-320.94088)" gradientUnits="userSpaceOnUse" xlink:href="#linearGradient3284"/><radialGradient id="radialGradient3736" cx="119.964" cy="229.29" r="203.195" fx="119.964" fy="229.29" gradientTransform="matrix(0.7210805,2.1168143,-1.4722239,0.5015047,347.53034,-320.94088)" gradientUnits="userSpaceOnUse" xlink:href="#linearGradient3284"/><radialGradient id="radialGradient3758" cx="390.697" cy="258.924" r="32.031" fx="390.697" fy="258.924" gradientTransform="matrix(4.0292425,-5.5974184,5.1695404,3.721239,-2510.9809,1613.1551)" gradientUnits="userSpaceOnUse" xlink:href="#linearGradient3750"/><radialGradient id="radialGradient3760" cx="59.047" cy="248.227" r="197.156" fx="59.047" fy="248.227" gradientTransform="matrix(1.7105919,-4.3705195e-2,3.3347151e-2,1.3051856,-58.593126,-250.18318)" gradientUnits="userSpaceOnUse" xlink:href="#linearGradient3750"/><radialGradient id="radialGradient3762" cx="192.64" cy="282.404" r="133.094" fx="192.64" fy="282.404" gradientTransform="matrix(1.0081228,0.4493093,-1.0529321,2.3624813,273.13721,-455.12138)" gradientUnits="userSpaceOnUse" xlink:href="#linearGradient3750"/><radialGradient id="radialGradient4344" cx="24" cy="280.454" r="65.063" fx="24" fy="280.454" gradientTransform="matrix(5.7478532,-0.5889281,0.4834745,4.7186431,-260.98332,-919.446)" gradientUnits="userSpaceOnUse" xlink:href="#linearGradient3750"/><linearGradient id="linearGradient4354" x1="-125.596" x2="-5.288" y1="-100.477" y2="-100.477" gradientUnits="userSpaceOnUse" xlink:href="#linearGradient3750"/></defs><metadata id="metadata7"/><g id="layer4" style="display:none"><rect style="opacity:.87000002;fill:#59f;fill-opacity:1;fill-rule:evenodd;stroke:none;stroke-width:60;stroke-linecap:round;stroke-linejoin:miter;marker:none;marker-start:none;marker-mid:none;marker-end:none;stroke-miterlimit:4;stroke-dasharray:none;stroke-dashoffset:0;stroke-opacity:1;visibility:visible;display:inline;overflow:visible;enable-background:accumulate" id="rect3241" width="330" height="313.5" x="39" y="103.862"/></g><g id="layer1" style="display:inline"><rect style="opacity:1;fill:url(#radialGradient3423);fill-opacity:1;fill-rule:nonzero;stroke:none;stroke-width:10;stroke-linecap:round;stroke-linejoin:miter;stroke-miterlimit:4;stroke-dasharray:none;stroke-dashoffset:0;stroke-opacity:1" id="rect2383" width="322.857" height="308.571" x="42.857" y="106.648"/><path style="opacity:.09583333;fill:#fff;fill-opacity:1;stroke:none;stroke-width:60;stroke-linecap:round;stroke-linejoin:round;stroke-miterlimit:4;stroke-dasharray:none;stroke-opacity:1" id="path3221" d="M 43.707165,106.65625 C 41.782753,110.85167 43.413409,116.56832 42.911106,121.37227 C 43.128238,169.37318 43.345369,217.37409 43.5625,265.375 C 55.407545,275.84522 72.489757,274.25524 87.152921,276.2874 C 140.64585,279.73053 194.4359,279.89819 247.75899,273.83826 C 281.78509,270.40324 315.81178,265.10681 348.64903,255.42536 C 357.00872,252.61832 367.50989,246.20234 365.71875,236.08333 C 365.71875,192.94097 365.71875,149.79861 365.71875,106.65625 C 258.38155,106.65625 151.04436,106.65625 43.707165,106.65625 z"/><g transform="matrix(0.3387513,-0.3401668,0.3401668,0.3387513,59.228831,277.49214)" style="opacity:.5;fill:#000;fill-opacity:1;filter:url(#filter3406)" id="g3394"><path style="fill:#000;fill-opacity:1;fill-rule:evenodd;stroke:none;stroke-width:60;stroke-linecap:round;stroke-linejoin:round;stroke-miterlimit:4;stroke-dasharray:none;stroke-opacity:1" id="path3396" d="M 412.75,98.59375 C 396.19379,98.835333 382.96319,112.44354 383.1875,129 C 383.1875,129 383.18749,216.25107 383.1875,325.3125 C 383.1875,348.61986 371.07095,364.44442 344.96875,378.78125 C 318.86655,393.11808 279.99599,401.65625 241.09375,401.65625 C 202.19151,401.65625 163.32095,393.11808 137.21875,378.78125 C 111.11655,364.44442 99,348.61986 99,325.3125 C 99,270.93917 99.441249,221.95695 99.65625,186.4375 C 99.76375,168.67777 99.833258,154.32173 99.75,144.09375 C 99.708371,138.97976 99.620501,134.98608 99.46875,131.625 C 99.392874,129.94446 99.331848,128.56919 99.0625,126.375 C 98.927826,125.27791 98.894428,124.1628 98.0625,121.1875 C 97.646536,119.69985 97.275733,117.79087 94.875,113.75 C 92.474267,109.70913 84.912085,98.999943 69,99 C 59.653467,98.879464 50.78473,103.12192 45.013008,110.47443 C 39.241286,117.82694 37.226064,127.44941 39.5625,136.5 C 39.625678,138.53091 39.71934,140.82729 39.75,144.59375 C 39.827653,154.13315 39.763299,168.40852 39.65625,186.09375 C 39.442151,221.46421 39,270.62442 39,325.3125 C 38.999999,372.89506 69.913445,410.26687 108.34375,431.375 C 146.77406,452.48313 193.95265,461.65625 241.09375,461.65625 C 288.23485,461.65625 335.41344,452.48313 373.84375,431.375 C 412.27406,410.26687 443.1875,372.89506 443.1875,325.3125 C 443.18749,216.25108 443.1875,129 443.1875,129 C 443.29728,120.89717 440.12471,113.0945 434.39168,107.36735 C 428.65864,101.6402 420.85272,98.475651 412.75,98.59375 L 412.75,98.59375 z"/><path style="fill:#000;fill-opacity:1;fill-rule:evenodd;stroke:none;stroke-width:60;stroke-linecap:round;stroke-linejoin:miter;stroke-miterlimit:4;stroke-dasharray:none;stroke-opacity:1" id="path3398" d="M 239.5625,99.5 C 223.00629,99.741583 209.77569,113.34979 210,129.90625 L 210,350 C 209.84699,360.81908 215.53126,370.88244 224.87619,376.33663 C 234.22111,381.79082 245.77889,381.79082 255.12381,376.33663 C 264.46874,370.88244 270.15301,360.81908 270,350 L 270,129.90625 C 270.10978,121.80342 266.93721,114.00075 261.20418,108.2736 C 255.47114,102.54645 247.66522,99.381901 239.5625,99.5 L 239.5625,99.5 z"/><path style="fill:#000;fill-opacity:1;stroke-width:60;stroke-linecap:round;stroke-linejoin:round;stroke-miterlimit:4;stroke-dasharray:none" id="path3400" d="M 100,40 A 30,30 0 1 1 40,40 A 30,30 0 1 1 100,40 z" transform="translate(0,-10)"/><path id="path3402" d="M 100,40 A 30,30 0 1 1 40,40 A 30,30 0 1 1 100,40 z" transform="translate(170,-10)" style="fill:#000;fill-opacity:1;stroke-width:60;stroke-linecap:round;stroke-linejoin:round;stroke-miterlimit:4;stroke-dasharray:none"/><path style="fill:#000;fill-opacity:1;stroke-width:60;stroke-linecap:round;stroke-linejoin:round;stroke-miterlimit:4;stroke-dasharray:none" id="path3404" d="M 100,40 A 30,30 0 1 1 40,40 A 30,30 0 1 1 100,40 z" transform="translate(345,-10)"/></g></g><g id="layer2" style="display:none"><rect id="rect3247" width="322.857" height="308.571" x="42.857" y="106.648" style="opacity:1;fill:none;fill-opacity:1;fill-rule:nonzero;stroke:#000;stroke-width:1;stroke-linecap:round;stroke-linejoin:miter;stroke-miterlimit:4;stroke-dasharray:none;stroke-dashoffset:0;stroke-opacity:1"/><rect style="opacity:1;fill:none;fill-opacity:1;fill-rule:nonzero;stroke:#000;stroke-width:1;stroke-linecap:round;stroke-linejoin:miter;stroke-miterlimit:4;stroke-dasharray:none;stroke-dashoffset:0;stroke-opacity:1" id="rect3253" width="212.077" height="98.217" x="42.851" y="218.038"/><rect style="opacity:1;fill:none;fill-opacity:1;fill-rule:nonzero;stroke:#000;stroke-width:1;stroke-linecap:round;stroke-linejoin:miter;stroke-miterlimit:4;stroke-dasharray:none;stroke-dashoffset:0;stroke-opacity:1" id="rect3257" width="110.753" height="70.944" x="254.941" y="274.262"/><rect id="rect3259" width="110.769" height="56.235" x="254.94" y="218.025" style="opacity:1;fill:none;fill-opacity:1;fill-rule:nonzero;stroke:#000;stroke-width:1;stroke-linecap:round;stroke-linejoin:miter;stroke-miterlimit:4;stroke-dasharray:none;stroke-dashoffset:0;stroke-opacity:1"/><rect id="rect3255" width="110.78" height="69.955" x="254.916" y="345.253" style="opacity:1;fill:none;fill-opacity:1;fill-rule:nonzero;stroke:#000;stroke-width:1;stroke-linecap:round;stroke-linejoin:miter;stroke-miterlimit:4;stroke-dasharray:none;stroke-dashoffset:0;stroke-opacity:1"/><rect style="opacity:1;fill:none;fill-opacity:1;fill-rule:nonzero;stroke:#000;stroke-width:1;stroke-linecap:round;stroke-linejoin:miter;stroke-miterlimit:4;stroke-dasharray:none;stroke-dashoffset:0;stroke-opacity:1" id="rect3249" width="106.876" height="111.692" x="42.85" y="106.321"/><rect id="rect3261" width="105.189" height="111.578" x="149.722" y="106.452" style="opacity:1;fill:none;fill-opacity:1;fill-rule:nonzero;stroke:#000;stroke-width:1;stroke-linecap:round;stroke-linejoin:miter;stroke-miterlimit:4;stroke-dasharray:none;stroke-dashoffset:0;stroke-opacity:1"/><rect style="opacity:1;fill:none;fill-opacity:1;fill-rule:nonzero;stroke:#000;stroke-width:1;stroke-linecap:round;stroke-linejoin:miter;stroke-miterlimit:4;stroke-dasharray:none;stroke-dashoffset:0;stroke-opacity:1" id="rect3263" width="110.786" height="111.572" x="254.916" y="106.455"/><rect id="rect3251" width="212.079" height="98.98" x="42.848" y="316.229" style="opacity:1;fill:none;fill-opacity:1;fill-rule:nonzero;stroke:#000;stroke-width:1;stroke-linecap:round;stroke-linejoin:miter;stroke-miterlimit:4;stroke-dasharray:none;stroke-dashoffset:0;stroke-opacity:1;display:inline"/></g><g id="layer5" style="display:inline"><rect id="rect3244" width="322.857" height="308.571" x="42.857" y="106.648" style="opacity:1;fill:none;fill-opacity:1;fill-rule:nonzero;stroke:#000;stroke-width:1;stroke-linecap:round;stroke-linejoin:miter;stroke-miterlimit:4;stroke-dasharray:none;stroke-dashoffset:0;stroke-opacity:1;display:inline"/><rect style="opacity:1;fill:none;fill-opacity:1;fill-rule:nonzero;stroke:#000;stroke-width:1;stroke-linecap:round;stroke-linejoin:miter;stroke-miterlimit:4;stroke-dasharray:none;stroke-dashoffset:0;stroke-opacity:1;display:inline" id="rect3246" width="322.857" height="308.571" x="42.857" y="106.648"/><path style="fill:none;fill-opacity:1;fill-rule:nonzero;stroke:#000;stroke-width:1;stroke-linecap:round;stroke-linejoin:miter;stroke-miterlimit:4;stroke-dashoffset:0;stroke-opacity:1;display:inline" id="path934" d="M 182.85714,106.6479 L 182.85714,415.21935 L 182.85714,106.6479 z"/><path id="path3254" d="M 182.41744,207.43363 L 43.296842,207.43363 L 182.41744,207.43363 z" style="opacity:1;fill:none;fill-opacity:1;fill-rule:nonzero;stroke:#000;stroke-width:1;stroke-linecap:round;stroke-linejoin:miter;marker:none;marker-start:none;marker-mid:none;marker-end:none;stroke-miterlimit:4;stroke-dasharray:none;stroke-dashoffset:0;stroke-opacity:1;visibility:visible;display:inline;overflow:visible;enable-background:accumulate"/><path style="opacity:1;fill:none;fill-opacity:1;fill-rule:nonzero;stroke:#000;stroke-width:1;stroke-linecap:round;stroke-linejoin:miter;marker:none;marker-start:none;marker-mid:none;marker-end:none;stroke-miterlimit:4;stroke-dasharray:none;stroke-dashoffset:0;stroke-opacity:1;visibility:visible;display:inline;overflow:visible;enable-background:accumulate" id="path3256" d="M 182.41744,313.43363 L 43.296842,313.43363 L 182.41744,313.43363 z"/></g><g id="layer3" style="display:inline"><path style="fill:#fff;fill-opacity:1;fill-rule:evenodd;stroke:none;stroke-width:60;stroke-linecap:round;stroke-linejoin:miter;stroke-miterlimit:4;stroke-dasharray:none;stroke-opacity:1;display:inline;opacity:.87;color:#000;marker:none;marker-start:none;marker-mid:none;marker-end:none;stroke-dashoffset:0;visibility:visible;overflow:visible;enable-background:accumulate" id="path2405" d="m 232.58675,170.48705 c -5.52626,5.71371 -5.37908,14.82412 0.32886,20.35634 0,0 29.67992,29.55642 66.779,66.50112 7.92839,7.8954 9.20688,17.37763 5.24164,31.11336 -3.96524,13.73572 -14.22829,29.85051 -27.40648,43.08376 -13.17818,13.23325 -29.25004,23.56341 -42.9691,27.58589 -13.71907,4.02248 -23.20656,2.78354 -31.13495,-5.11186 -18.496,-18.41904 -35.00865,-35.16193 -47.01836,-47.26732 -6.00485,-6.0527 -10.86475,-10.93947 -14.37218,-14.37589 -1.75371,-1.71821 -3.14199,-3.04119 -4.33673,-4.12814 -0.59736,-0.54347 -1.08586,-0.98859 -1.92349,-1.64025 -0.41881,-0.32583 -0.80945,-0.69221 -2.10337,-1.4171 -0.64695,-0.36245 -1.42193,-0.88298 -3.60976,-1.43518 -2.18782,-0.55221 -8.39243,-1.60755 -13.78265,3.80523 -3.20715,3.13855 -4.7683,7.59254 -4.2224,12.04656 0.5459,4.45402 3.90276,7.82444 7.00667,10.67027 0.71225,0.66649 1.52513,1.41253 2.81674,2.67799 3.27129,3.20507 8.1055,8.06276 14.08516,14.09007 11.95933,12.05462 28.53222,28.85811 47.13529,47.38377 16.18601,16.11865 39.37063,18.26267 59.56923,12.34037 20.1986,-5.92231 39.3008,-18.8635 55.26991,-34.89933 15.96911,-16.03584 28.83053,-35.19184 34.66856,-55.41496 5.83803,-20.22312 3.59735,-43.3986 -12.58866,-59.51725 l -66.77899,-66.50112 c -2.71913,-2.78218 -6.44805,-4.34615 -10.3383,-4.33604 -3.89027,0.0101 -7.61101,1.59343 -10.31564,4.38971 zm 232.58675,170.48705 c -5.52626,5.71371 -5.37908,14.82412 0.32886,20.35634 0,0 29.67992,29.55642 66.779,66.50112 7.92839,7.8954 9.20688,17.37763 5.24164,31.11336 -3.96524,13.73572 -14.22829,29.85051 -27.40648,43.08376 -13.17818,13.23325 -29.25004,23.56341 -42.9691,27.58589 -13.71907,4.02248 -23.20656,2.78354 -31.13495,-5.11186 -18.496,-18.41904 -35.00865,-35.16193 -47.01836,-47.26732 -6.00485,-6.0527 -10.86475,-10.93947 -14.37218,-14.37589 -1.75371,-1.71821 -3.14199,-3.04119 -4.33673,-4.12814 -0.59736,-0.54347 -1.08586,-0.98859 -1.92349,-1.64025 -0.41881,-0.32583 -0.80945,-0.69221 -2.10337,-1.4171 -0.64695,-0.36245 -1.42193,-0.88298 -3.60976,-1.43518 -2.18782,-0.55221 -8.39243,-1.60755 -13.78265,3.80523 -3.20715,3.13855 -4.7683,7.59254 -4.2224,12.04656 0.5459,4.45402 3.90276,7.82444 7.00667,10.67027 0.71225,0.66649 1.52513,1.41253 2.81674,2.67799 3.27129,3.20507 8.1055,8.06276 14.08516,14.09007 11.95933,12.05462 28.53222,28.85811 47.13529,47.38377 16.18601,16.11865 39.37063,18.26267 59.56923,12.34037 20.1986,-5.92231 39.3008,-18.8635 55.26991,-34.89933 15.96911,-16.03584 28.83053,-35.19184 34.66856,-55.41496 5.83803,-20.22312 3.59735,-43.3986 -12.58866,-59.51725 l -66.77899,-66.50112 c -2.71913,-2.78218 -6.44805,-4.34615 -10.3383,-4.33604 -3.89027,0.0101 -7.61101,1.59343 -10.31564,4.38971 z"/><path style="fill:#fff;fill-opacity:1;fill-rule:evenodd;stroke:none;stroke-width:60;stroke-linecap:round;stroke-linejoin:miter;stroke-miterlimit:4;stroke-dasharray:none;stroke-opacity:1;display:inline;opacity:.87" id="path3179" d="M 174.22754,229.70669 C 168.70128,235.42039 168.84845,244.5308 174.5564,250.06302 L 249.42498,324.62007 C 253.05344,328.33709 258.40222,329.81247 263.42316,328.48125 C 268.4441,327.15003 272.35931,323.21846 273.66958,318.19201 C 274.97985,313.16556 273.48219,307.82299 269.75006,304.21006 L 194.88148,229.65302 C 192.16235,226.87083 188.43343,225.30687 184.54317,225.31697 C 180.65291,225.32708 176.93217,226.9104 174.22754,229.70669 L 174.22754,229.70669 z"/><path style="fill:#fff;fill-opacity:1;stroke-width:124.98212864999999283;stroke-linecap:round;stroke-linejoin:miter;stroke-miterlimit:4;stroke-dasharray:none;display:inline;opacity:.87;color:#000;fill-rule:evenodd;stroke:none;marker:none;marker-start:none;marker-mid:none;marker-end:none;stroke-dashoffset:0;stroke-opacity:1;visibility:visible;overflow:visible;enable-background:accumulate" id="path3181" d="M 100,40 A 30,30 0 1 1 40,40 A 30,30 0 1 1 100,40 z" transform="matrix(0.3387513,-0.3401668,0.3401668,0.3387513,55.827163,274.10463)"/><path id="path3183" d="M 100,40 A 30,30 0 1 1 40,40 A 30,30 0 1 1 100,40 z" transform="matrix(0.3387513,-0.3401668,0.3401668,0.3387513,113.41488,216.27627)" style="fill:#fff;fill-opacity:1;stroke-width:124.98212864999999283;stroke-linecap:round;stroke-linejoin:miter;stroke-miterlimit:4;stroke-dasharray:none;display:inline;opacity:.87;color:#000;fill-rule:evenodd;stroke:none;marker:none;marker-start:none;marker-mid:none;marker-end:none;stroke-dashoffset:0;stroke-opacity:1;visibility:visible;overflow:visible;enable-background:accumulate"/><path style="fill:#fff;fill-opacity:1;stroke-width:124.98212864999999283;stroke-linecap:round;stroke-linejoin:miter;stroke-miterlimit:4;stroke-dasharray:none;display:inline;opacity:.87;color:#000;fill-rule:evenodd;stroke:none;marker:none;marker-start:none;marker-mid:none;marker-end:none;stroke-dashoffset:0;stroke-opacity:1;visibility:visible;overflow:visible;enable-background:accumulate" id="path3185" d="M 100,40 A 30,30 0 1 1 40,40 A 30,30 0 1 1 100,40 z" transform="matrix(0.3387513,-0.3401668,0.3401668,0.3387513,172.69636,156.74708)"/></g></svg>